<?xml version="1.0" encoding="iso-8859-1"?>
<!-- Generator: Adobe Illustrator 16.0.0, SVG Export Plug-In . SVG Version: 6.00 Build 0)  -->
<!DOCTYPE svg PUBLIC "-//W3C//DTD SVG 1.1//EN" "http://www.w3.org/Graphics/SVG/1.1/DTD/svg11.dtd">
<svg version="1.1" id="Capa_1" xmlns="http://www.w3.org/2000/svg" xmlns:xlink="http://www.w3.org/1999/xlink" x="0px" y="0px"
	 width="611.977px" height="611.977px" viewBox="0 0 611.977 611.977" style="enable-background:new 0 0 611.977 611.977;"
	 xml:space="preserve">
<g>
	<g id="arrow-L">
		<g>
			<path d="M585.382,279.354H90.329l141.333-141.333c10.329-10.329,10.329-27.074,0-37.376c-10.329-10.329-27.074-10.329-37.376,0
				L9.107,285.822c-0.559,0.453-1.251,0.639-1.784,1.171c-6.07,6.07-8.12,14.323-7.055,22.255c0.133,1.305,0.373,2.423,0.719,3.701
				c0.958,3.301,2.556,6.362,4.845,9.157c0.692,0.879,0.692,2.05,1.518,2.875c0.506,0.506,1.171,0.666,1.704,1.092l185.232,185.259
				c10.329,10.329,27.074,10.329,37.376,0c10.329-10.329,10.329-27.074,0-37.377L90.329,332.597h495.025
				c14.695,0,26.622-11.927,26.622-26.622C612.003,291.28,600.076,279.354,585.382,279.354z"/>
		</g>
	</g>
</g>
<g>
</g>
<g>
</g>
<g>
</g>
<g>
</g>
<g>
</g>
<g>
</g>
<g>
</g>
<g>
</g>
<g>
</g>
<g>
</g>
<g>
</g>
<g>
</g>
<g>
</g>
<g>
</g>
<g>
</g>
</svg>
